{
	"asset":{
		"generator":"Khronos glTF Blender I/O v4.1.63",
		"version":"2.0"
	},
	"scene":0,
	"scenes":[
		{
			"name":"Scene",
			"nodes":[
				0,
				1
			]
		}
	],
	"nodes":[
		{
			"mesh":0,
			"name":"eyeball_m"
		},
		{
			"mesh":1,
			"name":"Head_male"
		}
	],
	"materials":[
		{
			"name":"Default",
			"pbrMetallicRoughness":{
				"baseColorFactor":[
					0.5,
					0.5,
					0.5,
					1
				],
				"metallicFactor":0
			}
		},
		{
			"name":"Default-2",
			"pbrMetallicRoughness":{
				"baseColorFactor":[
					0.5,
					0.5,
					0.5,
					1
				],
				"metallicFactor":0
			}
		}
	],
	"meshes":[
		{
			"name":"eyeball_m-Mesh",
			"primitives":[
				{
					"attributes":{
						"POSITION":0,
						"NORMAL":1
					},
					"indices":2,
					"material":0
				}
			]
		},
		{
			"name":"Head_male-Mesh",
			"primitives":[
				{
					"attributes":{
						"POSITION":3,
						"NORMAL":4,
						"TEXCOORD_0":5
					},
					"indices":6,
					"material":1
				}
			]
		}
	],
	"accessors":[
		{
			"bufferView":0,
			"componentType":5126,
			"count":8481,
			"max":[
				0.04806699976325035,
				0.1921679973602295,
				0.095769003033638
			],
			"min":[
				-0.04806699976325035,
				0.16259899735450745,
				0.0667169988155365
			],
			"type":"VEC3"
		},
		{
			"bufferView":1,
			"componentType":5126,
			"count":8481,
			"type":"VEC3"
		},
		{
			"bufferView":2,
			"componentType":5123,
			"count":9792,
			"type":"SCALAR"
		},
		{
			"bufferView":3,
			"componentType":5126,
			"count":18446,
			"max":[
				0.15353800356388092,
				0.2881760001182556,
				0.1328119933605194
			],
			"min":[
				-0.15353800356388092,
				-0.10086099803447723,
				-0.11851699650287628
			],
			"type":"VEC3"
		},
		{
			"bufferView":4,
			"componentType":5126,
			"count":18446,
			"type":"VEC3"
		},
		{
			"bufferView":5,
			"componentType":5126,
			"count":18446,
			"type":"VEC2"
		},
		{
			"bufferView":6,
			"componentType":5123,
			"count":27504,
			"type":"SCALAR"
		}
	],
	"bufferViews":[
		{
			"buffer":0,
			"byteLength":101772,
			"byteOffset":0,
			"target":34962
		},
		{
			"buffer":0,
			"byteLength":101772,
			"byteOffset":101772,
			"target":34962
		},
		{
			"buffer":0,
			"byteLength":19584,
			"byteOffset":203544,
			"target":34963
		},
		{
			"buffer":0,
			"byteLength":221352,
			"byteOffset":223128,
			"target":34962
		},
		{
			"buffer":0,
			"byteLength":221352,
			"byteOffset":444480,
			"target":34962
		},
		{
			"buffer":0,
			"byteLength":147568,
			"byteOffset":665832,
			"target":34962
		},
		{
			"buffer":0,
			"byteLength":55008,
			"byteOffset":813400,
			"target":34963
		}
	],
	"buffers":[
		{
			"byteLength":868408,
			"uri":"MaleHead3.bin"
		}
	]
}
