{"accessors" : [{"bufferView" : 0, "byteOffset" : 0, "componentType" : 5123, "count" : 9792, "type" : "SCALAR", "max" : [6489], "min" : [0]}, {"bufferView" : 1, "byteOffset" : 0, "componentType" : 5126, "count" : 6490, "type" : "VEC3", "max" : [0.04806699976325035, 0.1921679973602295, 0.095769003033638], "min" : [-0.04806699976325035, 0.16259899735450745, 0.0667169988155365], "name" : "POSITION"}, {"bufferView" : 1, "byteOffset" : 12, "componentType" : 5126, "count" : 6490, "type" : "VEC3", "max" : [0.9951284527778625, 0.9900522828102112, 0.9999255537986755], "min" : [-0.9951284527778625, -0.9900522828102112, -0.9999368190765381], "name" : "NORMAL"}, {"bufferView" : 0, "byteOffset" : 19584, "componentType" : 5123, "count" : 27504, "type" : "SCALAR", "max" : [18335], "min" : [0]}, {"bufferView" : 2, "byteOffset" : 0, "componentType" : 5126, "count" : 18336, "type" : "VEC3", "max" : [0.15353800356388092, 0.2881760001182556, 0.1328119933605194], "min" : [-0.15353800356388092, -0.10086099803447723, -0.11851699650287628], "name" : "POSITION"}, {"bufferView" : 2, "byteOffset" : 12, "componentType" : 5126, "count" : 18336, "type" : "VEC3", "max" : [0.999691367149353, 0.9990726709365845, 0.9999172687530518], "min" : [-0.999691367149353, -0.9983558058738708, -0.9989182949066162], "name" : "NORMAL"}, {"bufferView" : 2, "byteOffset" : 24, "componentType" : 5126, "count" : 18336, "type" : "VEC2", "max" : [0.9936910271644592, 1.6380069255828857], "min" : [0.006308999843895435, 1.0067329406738281], "name" : "TEXCOORD_0"}], "asset" : {"generator" : "Aspose.3D 24.6.0", "version" : "2.0"}, "buffers" : [{"uri" : "data:application/octet-stream;base64,", "byteLength" : 817116}], "bufferViews" : [{"buffer" : 0, "byteOffset" : 0, "byteLength" : 74592, "target" : 34963}, {"buffer" : 0, "byteOffset" : 74596, "byteLength" : 155760, "byteStride" : 24, "target" : 34962}, {"buffer" : 0, "byteOffset" : 230360, "byteLength" : 586752, "byteStride" : 32, "target" : 34962}], "materials" : [{"name" : "Default", "pbrMetallicRoughness" : {"baseColorFactor" : [0.5, 0.5, 0.5, 1], "metallicFactor" : 0, "roughnessFactor" : 1}, "emissiveFactor" : [0, 0, 0], "alphaMode" : "OPAQUE", "doubleSided" : false}, {"name" : "Default-2", "pbrMetallicRoughness" : {"baseColorFactor" : [0.5, 0.5, 0.5, 1], "metallicFactor" : 0, "roughnessFactor" : 1}, "emissiveFactor" : [0, 0, 0], "alphaMode" : "OPAQUE", "doubleSided" : false}], "meshes" : [{"primitives" : [{"attributes" : {"POSITION" : 1, "NORMAL" : 2}, "indices" : 0, "material" : 0, "mode" : 4}]}, {"primitives" : [{"attributes" : {"POSITION" : 4, "NORMAL" : 5, "TEXCOORD_0" : 6}, "indices" : 3, "material" : 1, "mode" : 4}]}], "nodes" : [{"mesh" : 0, "name" : "eyeball_m"}, {"mesh" : 1, "name" : "Head_male"}], "scene" : 0, "scenes" : [{"nodes" : [0, 1]}]}